<svg xmlns="http://www.w3.org/2000/svg" xmlns:xlink="http://www.w3.org/1999/xlink" width="1921" height="620.764" viewBox="0 0 1921 620.764">
  <defs>
    <linearGradient id="linear-gradient" x1="0.5" x2="0.5" y2="1" gradientUnits="objectBoundingBox">
      <stop offset="0"/>
      <stop offset="1" stop-color="#61146f"/>
    </linearGradient>
    <linearGradient id="linear-gradient-2" x1="0.5" x2="0.48" y2="0.637" gradientUnits="objectBoundingBox">
      <stop offset="0" stop-color="#c631d9"/>
      <stop offset="0.276" stop-color="#9f31ad" stop-opacity="0.749"/>
      <stop offset="1" stop-opacity="0.525"/>
    </linearGradient>
    <clipPath id="clip-path">
      <rect id="Rectangle_1" data-name="Rectangle 1" width="1920" height="502" fill="none"/>
    </clipPath>
  </defs>
  <g id="bg" transform="translate(1)">
    <rect id="Rectangle_1-2" data-name="Rectangle 1" width="1920" height="609" fill="url(#linear-gradient)"/>
    <circle id="Ellipse_1" data-name="Ellipse 1" cx="203.5" cy="203.5" r="203.5" transform="translate(901 42)" fill="url(#linear-gradient-2)"/>
    <path id="Path_2" data-name="Path 2" d="M1918.947,386.543l-92.636,34.926-146.592-120.8-190.125,85.879-173.47-161.9L1146.45,362.5l-138.5-115.906L869.727,386.543,782.763,283.76,678.921,362.5l-61.767-61.831L573.535,333.2l-95.373-86.61L250.65,430.774,156.27,362.5,55.348,430.774,0,413.581V611.764H1918.947Z" transform="translate(0 -20)" opacity="0.211"/>
    <g id="Group_1" data-name="Group 1">
      <g id="Repeat_Grid_1" data-name="Repeat Grid 1" transform="translate(0 38)" opacity="0.18" clip-path="url(#clip-path)">
        <g id="Group_1-2" data-name="Group 1" transform="translate(0 -38)">
          <rect id="Rectangle_2" data-name="Rectangle 2" width="1920" height="8" transform="translate(0 38)"/>
        </g>
        <g id="Group_2" data-name="Group 2" transform="translate(0 -23)">
          <rect id="Rectangle_2-2" data-name="Rectangle 2" width="1920" height="8" transform="translate(0 38)"/>
        </g>
        <g id="Group_3" data-name="Group 3" transform="translate(0 -8)">
          <rect id="Rectangle_2-3" data-name="Rectangle 2" width="1920" height="8" transform="translate(0 38)"/>
        </g>
        <g id="Group_4" data-name="Group 4" transform="translate(0 7)">
          <rect id="Rectangle_2-4" data-name="Rectangle 2" width="1920" height="8" transform="translate(0 38)"/>
        </g>
        <g id="Group_5" data-name="Group 5" transform="translate(0 22)">
          <rect id="Rectangle_2-5" data-name="Rectangle 2" width="1920" height="8" transform="translate(0 38)"/>
        </g>
        <g id="Group_6" data-name="Group 6" transform="translate(0 37)">
          <rect id="Rectangle_2-6" data-name="Rectangle 2" width="1920" height="8" transform="translate(0 38)"/>
        </g>
        <g id="Group_7" data-name="Group 7" transform="translate(0 52)">
          <rect id="Rectangle_2-7" data-name="Rectangle 2" width="1920" height="8" transform="translate(0 38)"/>
        </g>
        <g id="Group_8" data-name="Group 8" transform="translate(0 67)">
          <rect id="Rectangle_2-8" data-name="Rectangle 2" width="1920" height="8" transform="translate(0 38)"/>
        </g>
        <g id="Group_9" data-name="Group 9" transform="translate(0 82)">
          <rect id="Rectangle_2-9" data-name="Rectangle 2" width="1920" height="8" transform="translate(0 38)"/>
        </g>
        <g id="Group_10" data-name="Group 10" transform="translate(0 97)">
          <rect id="Rectangle_2-10" data-name="Rectangle 2" width="1920" height="8" transform="translate(0 38)"/>
        </g>
        <g id="Group_11" data-name="Group 11" transform="translate(0 112)">
          <rect id="Rectangle_2-11" data-name="Rectangle 2" width="1920" height="8" transform="translate(0 38)"/>
        </g>
        <g id="Group_12" data-name="Group 12" transform="translate(0 127)">
          <rect id="Rectangle_2-12" data-name="Rectangle 2" width="1920" height="8" transform="translate(0 38)"/>
        </g>
        <g id="Group_13" data-name="Group 13" transform="translate(0 142)">
          <rect id="Rectangle_2-13" data-name="Rectangle 2" width="1920" height="8" transform="translate(0 38)"/>
        </g>
        <g id="Group_14" data-name="Group 14" transform="translate(0 157)">
          <rect id="Rectangle_2-14" data-name="Rectangle 2" width="1920" height="8" transform="translate(0 38)"/>
        </g>
        <g id="Group_15" data-name="Group 15" transform="translate(0 172)">
          <rect id="Rectangle_2-15" data-name="Rectangle 2" width="1920" height="8" transform="translate(0 38)"/>
        </g>
        <g id="Group_16" data-name="Group 16" transform="translate(0 187)">
          <rect id="Rectangle_2-16" data-name="Rectangle 2" width="1920" height="8" transform="translate(0 38)"/>
        </g>
        <g id="Group_17" data-name="Group 17" transform="translate(0 202)">
          <rect id="Rectangle_2-17" data-name="Rectangle 2" width="1920" height="8" transform="translate(0 38)"/>
        </g>
        <g id="Group_18" data-name="Group 18" transform="translate(0 217)">
          <rect id="Rectangle_2-18" data-name="Rectangle 2" width="1920" height="8" transform="translate(0 38)"/>
        </g>
        <g id="Group_19" data-name="Group 19" transform="translate(0 232)">
          <rect id="Rectangle_2-19" data-name="Rectangle 2" width="1920" height="8" transform="translate(0 38)"/>
        </g>
        <g id="Group_20" data-name="Group 20" transform="translate(0 247)">
          <rect id="Rectangle_2-20" data-name="Rectangle 2" width="1920" height="8" transform="translate(0 38)"/>
        </g>
        <g id="Group_21" data-name="Group 21" transform="translate(0 262)">
          <rect id="Rectangle_2-21" data-name="Rectangle 2" width="1920" height="8" transform="translate(0 38)"/>
        </g>
        <g id="Group_22" data-name="Group 22" transform="translate(0 277)">
          <rect id="Rectangle_2-22" data-name="Rectangle 2" width="1920" height="8" transform="translate(0 38)"/>
        </g>
        <g id="Group_23" data-name="Group 23" transform="translate(0 292)">
          <rect id="Rectangle_2-23" data-name="Rectangle 2" width="1920" height="8" transform="translate(0 38)"/>
        </g>
        <g id="Group_24" data-name="Group 24" transform="translate(0 307)">
          <rect id="Rectangle_2-24" data-name="Rectangle 2" width="1920" height="8" transform="translate(0 38)"/>
        </g>
        <g id="Group_25" data-name="Group 25" transform="translate(0 322)">
          <rect id="Rectangle_2-25" data-name="Rectangle 2" width="1920" height="8" transform="translate(0 38)"/>
        </g>
        <g id="Group_26" data-name="Group 26" transform="translate(0 337)">
          <rect id="Rectangle_2-26" data-name="Rectangle 2" width="1920" height="8" transform="translate(0 38)"/>
        </g>
        <g id="Group_27" data-name="Group 27" transform="translate(0 352)">
          <rect id="Rectangle_2-27" data-name="Rectangle 2" width="1920" height="8" transform="translate(0 38)"/>
        </g>
        <g id="Group_28" data-name="Group 28" transform="translate(0 367)">
          <rect id="Rectangle_2-28" data-name="Rectangle 2" width="1920" height="8" transform="translate(0 38)"/>
        </g>
        <g id="Group_29" data-name="Group 29" transform="translate(0 382)">
          <rect id="Rectangle_2-29" data-name="Rectangle 2" width="1920" height="8" transform="translate(0 38)"/>
        </g>
        <g id="Group_30" data-name="Group 30" transform="translate(0 397)">
          <rect id="Rectangle_2-30" data-name="Rectangle 2" width="1920" height="8" transform="translate(0 38)"/>
        </g>
        <g id="Group_31" data-name="Group 31" transform="translate(0 412)">
          <rect id="Rectangle_2-31" data-name="Rectangle 2" width="1920" height="8" transform="translate(0 38)"/>
        </g>
        <g id="Group_32" data-name="Group 32" transform="translate(0 427)">
          <rect id="Rectangle_2-32" data-name="Rectangle 2" width="1920" height="8" transform="translate(0 38)"/>
        </g>
        <g id="Group_33" data-name="Group 33" transform="translate(0 442)">
          <rect id="Rectangle_2-33" data-name="Rectangle 2" width="1920" height="8" transform="translate(0 38)"/>
        </g>
      </g>
    </g>
    <path id="Path_1" data-name="Path 1" d="M0,454.2l49.523,34.68,52.834-51.234,42.055,25.707,92.612-87.442,54.4,32.116,129.01-107.358,92.012,75.243,47.2-33.932,83.492,66.047,121.1-107.358,50.189,50.189L942.261,236.566l135.263,96.63,59.845-49.435,103.95,78.739,61.831-61.831,43.665,32.531,95.472-86.606,85.621,61.975,24.8-24.8,112.209,102.783,72.785-44.568,80.662,79.494,34.926-34.926,67.653,67.653V611.764H0Z" transform="translate(-1 9)"/>
  </g>
</svg>
